# xmcd
#
# Track frame offsets:
#	150
#	10268
#	27577
#	46485
#	56935
#	73816
#	89671
#	99875
#	107165
#	117008
#	140528
#	153510
#	158204
#	166042
#	176977
#	185505
#
# Disc length: 2641 seconds
#
# Revision: 0
# Processed by: cddbd v1.5.2PL0 Copyright (c) Steve Scherf et al.
# Submitted via: EasyCDDAExtractor 16.0.1.1
#
DISCID=df0a4f10
DTITLE=Johnny Bond - Live It Up And Laugh It Up
DYEAR=1962
DGENRE=Country
TTITLE0=Johnny Bond - Oklahoma Hills
TTITLE1=Johnny Bond - Ten Little Bottles
TTITLE2=Johnny Bond - I'm A-Rollin'
TTITLE3=Johnny Bond and Cathy Copas - Family Man
TTITLE4=Johnny Bond - They Got Me
TTITLE5=Johnny Bond and Cowboy Copas - Alabam
TTITLE6=Johnny Bond and Cowboy Copas - Thinkin' Tonite
TTITLE7=Johnny Bond - Tumbling Tumbleweeds
TTITLE8=Johnny Bond - Down Yonder
TTITLE9=Johnny Bond with A Campbell and C Copas and J Tubb - You Are My Sunshine
TTITLE10=Johnny Bond - Of Horesradish And Cactus
TTITLE11=Justin Tubb - Mountain Dew
TTITLE12=Johnny Bond - Corina
TTITLE13=Johnny Bond and Cowboy Copas - Eleven More Months And Ten More Days
TTITLE14=Johnny Bond - San Antonio Rose
TTITLE15=Little Roy Wiggins - Flapjack
EXTD=
EXTT0=
EXTT1=
EXTT2=
EXTT3=
EXTT4=
EXTT5=
EXTT6=
EXTT7=
EXTT8=
EXTT9=
EXTT10=
EXTT11=
EXTT12=
EXTT13=
EXTT14=
EXTT15=
PLAYORDER=
